HIERARCHY
ROOT Hips
{
    OFFSET 0.000000 0.000000 0.000000
    CHANNELS 6 Xposition Yposition Zposition Zrotation Xrotation Yrotation
    JOINT Spine
    {
        OFFSET -0.000000 14.517291 0.000000
        CHANNELS 3 Zrotation Xrotation Yrotation
        JOINT Spine1
        {
            OFFSET -0.000000 37.558300 0.000000
            CHANNELS 3 Zrotation Xrotation Yrotation
            JOINT Neck
            {
                OFFSET -0.000000 37.404057 3.400369
                CHANNELS 3 Zrotation Xrotation Yrotation
                JOINT Head
                {
                    OFFSET -0.000000 24.785618 -3.540803
                    CHANNELS 3 Zrotation Xrotation Yrotation
                    End Site
                    {
                        OFFSET -0.000000 35.408028 0.000000
                    }
                }
            }
            JOINT LeftShoulder
            {
                OFFSET 6.992933 33.973492 -0.192664
                CHANNELS 3 Zrotation Xrotation Yrotation
                JOINT LeftArm
                {
                    OFFSET 21.527611 0.000000 0.000000
                    CHANNELS 3 Zrotation Xrotation Yrotation
                    JOINT LeftForeArm
                    {
                        OFFSET 56.353916 0.000000 0.000000
                        CHANNELS 3 Zrotation Xrotation Yrotation
                        JOINT LeftHand
                        {
                            OFFSET 47.774071 0.000000 0.000000
                            CHANNELS 3 Zrotation Xrotation Yrotation
                            End Site
                            {
                                OFFSET 26.556021 0.000000 0.000000
                            }
                        }
                    }
                }
            }
            JOINT RightShoulder
            {
                OFFSET -7.065357 33.973492 -0.192664
                CHANNELS 3 Zrotation Xrotation Yrotation
                JOINT RightArm
                {
                    OFFSET -21.527611 0.000000 0.000000
                    CHANNELS 3 Zrotation Xrotation Yrotation
                    JOINT RightForeArm
                    {
                        OFFSET -56.353916 0.000000 0.000000
                        CHANNELS 3 Zrotation Xrotation Yrotation
                        JOINT RightHand
                        {
                            OFFSET -47.774071 0.000000 0.000000
                            CHANNELS 3 Zrotation Xrotation Yrotation
                            End Site
                            {
                                OFFSET -26.556021 0.000000 0.000000
                            }
                        }
                    }
                }
            }
        }
    }
    JOINT LeftUpLeg
    {
        OFFSET 17.704014 0.000000 0.000000
        CHANNELS 3 Zrotation Xrotation Yrotation
        JOINT LeftLeg
        {
            OFFSET -0.000000 -81.181816 0.000000
            CHANNELS 3 Zrotation Xrotation Yrotation
            JOINT LeftFoot
            {
                OFFSET -0.000000 -62.821102 0.000000
                CHANNELS 3 Zrotation Xrotation Yrotation
                JOINT LeftToeBase
                {
                    OFFSET -0.000000 -11.507608 26.556021
                    CHANNELS 3 Zrotation Xrotation Yrotation
                    End Site
                    {
                        OFFSET -0.000000 0.000000 7.081605
                    }
                }
            }
        }
    }
    JOINT RightUpLeg
    {
        OFFSET -17.704014 0.000000 0.000000
        CHANNELS 3 Zrotation Xrotation Yrotation
        JOINT RightLeg
        {
            OFFSET -0.000000 -81.181816 0.000000
            CHANNELS 3 Zrotation Xrotation Yrotation
            JOINT RightFoot
            {
                OFFSET -0.000000 -62.821102 0.000000
                CHANNELS 3 Zrotation Xrotation Yrotation
                JOINT RightToeBase
                {
                    OFFSET -0.000000 -11.507608 26.556021
                    CHANNELS 3 Zrotation Xrotation Yrotation
                    End Site
                    {
                        OFFSET -0.000000 0.000000 7.081605
                    }
                }
            }
        }
    }
}
MOTION
Frames:    14
Frame Time:    0.008333
-2.080118    157.258759    -29.860771    0.958200    -4.127322    -16.857159    0.603860    -2.339808    -0.329576    -1.238281    6.251270    -0.047489    9.734488    -2.206524    7.416336    -1.023409    2.458482    5.953601    2.359406    10.232647    -15.415938    -34.571548    19.177389    -53.701630    52.089680    -53.202065    -32.921268    -8.074003    -40.776333    -23.367418    -1.737021    8.224200    -3.570657    41.060585    12.101915    62.781712    -4.055167    -17.104399    111.591599    3.664098    -10.975961    10.856017    10.047798    -14.291286    -6.467180    -8.466028    5.025336    3.791303    -7.702333    10.854939    20.122566    0.000000    0.000000    0.000000    -7.822635    11.159704    -10.032035    5.923412    20.259701    -1.035491    1.430923    -24.300207    -25.130592    0.000000    0.000000    0.000000    
-2.071142    157.260971    -29.860596    0.953911    -4.125101    -16.858618    0.618845    -2.339741    -0.312152    -1.236846    6.235936    -0.041991    9.714041    -2.212368    7.411473    -0.998645    2.478674    5.954696    2.338266    10.219102    -15.382371    -34.614212    19.159801    -53.445702    51.940784    -53.194969    -33.093941    -8.286234    -40.697128    -23.508978    -1.732544    8.234242    -3.583847    41.062210    12.100302    62.793114    -4.073858    -17.104687    111.586105    3.664165    -10.949940    10.845804    10.049553    -14.294451    -6.467585    -8.468009    5.027554    3.795433    -7.691948    10.854737    20.128189    0.000000    0.000000    0.000000    -7.819033    11.161242    -10.027166    5.922393    20.247118    -1.060301    1.434694    -24.288181    -25.113434    0.000000    0.000000    0.000000    
-2.056159    157.261978    -29.862022    0.952827    -4.118804    -16.864590    0.642201    -2.350719    -0.295889    -1.241759    6.229953    -0.036459    9.699890    -2.200207    7.403706    -1.001468    2.476276    5.949688    2.298770    10.207994    -15.357716    -34.588940    19.057711    -53.052662    51.356789    -53.174526    -33.677998    -8.209777    -40.612076    -23.510281    -1.732802    8.245117    -3.590464    41.070900    12.099277    62.809212    -4.070329    -17.100418    111.592094    3.610348    -10.956238    10.811698    10.045250    -14.296606    -6.453424    -8.459021    5.020838    3.774911    -7.692863    10.856364    20.142370    0.000000    0.000000    0.000000    -7.822566    11.152192    -10.020957    5.920868    20.245756    -1.034263    1.442807    -24.290369    -25.138926    0.000000    0.000000    0.000000    
-2.046122    157.264801    -29.862101    0.951984    -4.119950    -16.869844    0.651729    -2.355222    -0.277094    -1.232229    6.225425    -0.030681    9.670018    -2.182807    7.389364    -0.981171    2.461568    5.943636    2.271645    10.203955    -15.322782    -34.636845    19.009531    -52.820908    51.203617    -53.123413    -33.828815    -8.355512    -40.500877    -23.619259    -1.744736    8.263186    -3.600549    41.079723    12.111127    62.823948    -4.095607    -17.137730    111.581055    3.636848    -10.955598    10.838927    10.042325    -14.294178    -6.474055    -8.459652    5.018163    3.797788    -7.699138    10.853653    20.149843    0.000000    0.000000    0.000000    -7.823320    11.155499    -10.001270    5.922451    20.233421    -1.053616    1.438622    -24.289696    -25.142893    0.000000    0.000000    0.000000    
-2.033684    157.264832    -29.859043    0.951148    -4.122049    -16.876270    0.656703    -2.361747    -0.259522    -1.214219    6.223627    -0.025937    9.637230    -2.174596    7.375247    -0.957848    2.456504    5.937978    2.234169    10.190064    -15.298828    -34.601254    19.000340    -52.592659    51.110989    -53.106812    -33.886536    -8.475859    -40.459110    -23.702389    -1.756294    8.272958    -3.608359    41.098995    12.099721    62.833031    -4.100600    -17.114786    111.586288    3.591572    -10.929869    10.797150    10.038645    -14.287759    -6.450050    -8.455352    5.015952    3.784480    -7.684070    10.856137    20.134544    0.000000    0.000000    0.000000    -7.830810    11.163607    -9.984565    5.933260    20.215054    -1.084051    1.406816    -24.266680    -25.115656    0.000000    0.000000    0.000000    
-2.020397    157.267029    -29.859510    0.949746    -4.125317    -16.890287    0.669902    -2.361418    -0.244341    -1.213127    6.213414    -0.021060    9.613837    -2.156395    7.367085    -0.943870    2.450019    5.936627    2.204790    10.172923    -15.267820    -34.585693    18.974094    -52.363243    50.976791    -53.102295    -33.978027    -8.601632    -40.433174    -23.735376    -1.764224    8.289781    -3.605853    41.099251    12.110433    62.844292    -4.122394    -17.142199    111.577309    3.599646    -10.927088    10.792468    10.038233    -14.280331    -6.434547    -8.451870    5.014845    3.784849    -7.686251    10.851496    20.120226    0.000000    0.000000    0.000000    -7.834043    11.168237    -9.961843    5.925009    20.200657    -1.082841    1.416311    -24.261602    -25.117922    0.000000    0.000000    0.000000    
-2.009221    157.266968    -29.858679    0.953540    -4.129072    -16.897394    0.671748    -2.366263    -0.232036    -1.204566    6.212828    -0.017200    9.591041    -2.129838    7.351147    -0.933380    2.413345    5.927091    2.179342    10.148382    -15.226562    -34.578896    18.953808    -52.161629    50.830139    -53.121193    -34.064190    -8.827897    -40.422249    -23.839354    -1.776684    8.290570    -3.607892    41.126602    12.111654    62.839134    -4.104298    -17.126146    111.589516    3.638172    -10.931087    10.826836    10.031011    -14.275991    -6.432036    -8.452831    5.011417    3.795908    -7.673266    10.855665    20.114111    0.000000    0.000000    0.000000    -7.845589    11.178540    -9.952493    5.930403    20.180386    -1.068808    1.416273    -24.263338    -25.128452    0.000000    0.000000    0.000000    
-1.994488    157.269531    -29.856503    0.952452    -4.129637    -16.904421    0.686912    -2.379077    -0.221924    -1.209384    6.224087    -0.014224    9.566976    -2.133882    7.344702    -0.900278    2.411231    5.928114    2.164620    10.132037    -15.189397    -34.638821    18.891165    -51.889389    50.504810    -53.095402    -34.389278    -8.768239    -40.366055    -23.797073    -1.772303    8.301559    -3.609244    41.122639    12.103797    62.848572    -4.099636    -17.120371    111.595238    3.661492    -10.929226    10.826418    10.028341    -14.270412    -6.432867    -8.451180    5.004393    3.770809    -7.696782    10.851302    20.149923    0.000000    0.000000    0.000000    -7.850710    11.189739    -9.938154    5.928748    20.154205    -1.049804    1.426330    -24.262541    -25.128635    0.000000    0.000000    0.000000    
-1.981850    157.267731    -29.856289    0.953561    -4.125339    -16.912054    0.687219    -2.389923    -0.211371    -1.186192    6.222468    -0.011457    9.540457    -2.108886    7.324474    -0.897966    2.381091    5.913677    2.135445    10.113931    -15.152091    -34.659275    18.796255    -51.638107    50.106030    -53.085186    -34.723579    -8.830696    -40.326618    -23.800558    -1.802494    8.305192    -3.607079    41.157883    12.116989    62.833836    -3.994737    -17.136621    111.621758    3.791905    -11.075044    11.065246    10.027467    -14.274508    -6.433311    -8.451061    5.005705    3.778217    -7.687402    10.847688    20.137516    0.000000    0.000000    0.000000    -7.854162    11.189520    -9.942628    5.933272    20.136906    -1.053858    1.403003    -24.258633    -25.141447    0.000000    0.000000    0.000000    
-1.967960    157.271606    -29.858267    0.953986    -4.126801    -16.921865    0.690524    -2.386399    -0.197595    -1.179090    6.208560    -0.007539    9.546949    -2.100750    7.325187    -0.910838    2.376061    5.912395    2.125636    10.100451    -15.129472    -34.685204    18.701986    -51.382320    49.727657    -53.061535    -35.044460    -8.865034    -40.276150    -23.795959    -1.804493    8.308722    -3.614304    41.160740    12.114219    62.831654    -4.011510    -17.123716    111.615570    3.763037    -11.042244    11.019214    10.025889    -14.271524    -6.444485    -8.455559    5.000668    3.792516    -7.708971    10.845382    20.161131    0.000000    0.000000    0.000000    -7.859288    11.193807    -9.927953    5.929255    20.118692    -1.017934    1.403991    -24.251104    -25.169552    0.000000    0.000000    0.000000    
-1.956623    157.271667    -29.861372    0.954215    -4.126472    -16.924974    0.691713    -2.391333    -0.195807    -1.167299    6.204277    -0.007738    9.516156    -2.071688    7.301596    -0.887019    2.344656    5.898149    2.109524    10.098907    -15.083726    -34.671032    18.655392    -51.147839    49.443241    -53.067528    -35.294811    -8.982415    -40.248173    -23.838188    -1.816065    8.314983    -3.601470    41.173752    12.107228    62.823776    -4.008746    -17.115305    111.614563    3.732328    -11.041338    11.000783    10.022710    -14.275766    -6.449041    -8.456898    5.004819    3.782455    -7.694318    10.850635    20.165554    0.000000    0.000000    0.000000    -7.860281    11.194315    -9.920972    5.924323    20.107203    -1.021495    1.399686    -24.249275    -25.171772    0.000000    0.000000    0.000000    
-1.946679    157.274109    -29.861530    0.952018    -4.122357    -16.933319    0.700032    -2.406850    -0.186651    -1.163031    6.208429    -0.004592    9.511679    -2.068299    7.300338    -0.884231    2.345773    5.898226    2.103659    10.074773    -15.065508    -34.694084    18.600245    -50.883217    49.181614    -53.047050    -35.536808    -9.015013    -40.199188    -23.856125    -1.818491    8.323576    -3.598946    41.168697    12.107068    62.816620    -4.003999    -17.130239    111.608658    3.766825    -11.059143    11.051402    10.024778    -14.279205    -6.464740    -8.455492    5.005355    3.791250    -7.714287    10.842370    20.175142    0.000000    0.000000    0.000000    -7.863431    11.191329    -9.911291    5.926449    20.101931    -1.001767    1.387626    -24.243551    -25.187925    0.000000    0.000000    0.000000    
-1.934646    157.275177    -29.864073    0.947211    -4.123237    -16.945515    0.704290    -2.401856    -0.173036    -1.147802    6.194341    -0.001094    9.497981    -2.050388    7.282317    -0.883947    2.334049    5.883228    2.086798    10.065420    -15.036253    -34.689644    18.528738    -50.634735    48.893356    -52.973186    -35.789787    -9.004634    -40.094746    -23.860983    -1.824278    8.337297    -3.604494    41.175770    12.096524    62.815964    -4.013218    -17.113037    111.601463    3.765502    -11.029566    11.029980    10.028135    -14.273337    -6.471496    -8.453197    5.001021    3.791486    -7.720356    10.840752    20.176605    0.000000    0.000000    0.000000    -7.859360    11.191521    -9.883287    5.925474    20.087057    -1.006700    1.375811    -24.231375    -25.208191    0.000000    0.000000    0.000000    
-1.920837    157.276993    -29.868618    0.945779    -4.114818    -16.955978    0.708456    -2.418058    -0.158675    -1.133840    6.199006    0.002615    9.471142    -2.058869    7.269424    -0.854630    2.348491    5.877301    2.077367    10.036298    -15.014636    -34.671051    18.535198    -50.369263    48.693096    -52.958351    -35.986282    -9.084438    -40.042160    -23.937784    -1.832689    8.344456    -3.616242    41.182301    12.093434    62.820454    -4.028040    -17.107616    111.582115    3.762834    -11.004185    11.054101    10.032234    -14.278748    -6.493052    -8.458181    4.992095    3.800610    -7.726347    10.834496    20.206348    0.000000    0.000000    0.000000    -7.859859    11.180115    -9.868097    5.930531    20.077543    -1.026357    1.378598    -24.228971    -25.216084    0.000000    0.000000    0.000000    
